<svg width="16" height="19" viewBox="0 0 16 19" fill="none" xmlns="http://www.w3.org/2000/svg">
<path fill-rule="evenodd" clip-rule="evenodd" d="M8 18.6668C8 18.6668 15.5 13.6668 15.5 7.8335C15.5 5.84437 14.7098 3.93672 13.3033 2.53019C11.8968 1.12367 9.98912 0.333496 8 0.333496C6.01088 0.333496 4.10322 1.12367 2.6967 2.53019C1.29018 3.93672 0.5 5.84437 0.5 7.8335C0.5 13.6668 8 18.6668 8 18.6668ZM10.5 7.8335C10.5 9.21421 9.38071 10.3335 8 10.3335C6.61929 10.3335 5.5 9.21421 5.5 7.8335C5.5 6.45278 6.61929 5.3335 8 5.3335C9.38071 5.3335 10.5 6.45278 10.5 7.8335Z" fill="#464F6A"/>
</svg>
