<svg width="37" height="36" viewBox="0 0 37 36" fill="none" xmlns="http://www.w3.org/2000/svg">
<rect x="0.5" width="36" height="36" rx="18" fill="url(#paint0_radial_680_2067)"/>
<path d="M18.5 10.6265C20.8855 10.6265 21.2108 10.6265 22.1867 10.6265C23.0542 10.6265 23.488 10.8434 23.8133 10.9518C24.247 11.1687 24.5723 11.2771 24.8976 11.6024C25.2229 11.9277 25.4398 12.253 25.5482 12.6867C25.6566 13.012 25.7651 13.4458 25.8735 14.3133C25.8735 15.2892 25.8735 15.506 25.8735 18C25.8735 20.494 25.8735 20.7108 25.8735 21.6867C25.8735 22.5542 25.6566 22.988 25.5482 23.3133C25.3313 23.747 25.2229 24.0723 24.8976 24.3976C24.5723 24.7229 24.247 24.9398 23.8133 25.0482C23.488 25.1566 23.0542 25.2651 22.1867 25.3735C21.2108 25.3735 20.994 25.3735 18.5 25.3735C16.006 25.3735 15.7892 25.3735 14.8133 25.3735C13.9458 25.3735 13.512 25.1566 13.1867 25.0482C12.753 24.8313 12.4277 24.7229 12.1024 24.3976C11.7771 24.0723 11.5602 23.747 11.4518 23.3133C11.3434 22.988 11.2349 22.5542 11.1265 21.6867C11.1265 20.7108 11.1265 20.494 11.1265 18C11.1265 15.506 11.1265 15.2892 11.1265 14.3133C11.1265 13.4458 11.3434 13.012 11.4518 12.6867C11.6687 12.253 11.7771 11.9277 12.1024 11.6024C12.4277 11.2771 12.753 11.0602 13.1867 10.9518C13.512 10.8434 13.9458 10.7349 14.8133 10.6265C15.7892 10.6265 16.1145 10.6265 18.5 10.6265ZM18.5 9C16.006 9 15.7892 9 14.8133 9C13.8374 9 13.1867 9.21687 12.6446 9.43374C12.1024 9.6506 11.5602 9.9759 11.0181 10.5181C10.4759 11.0602 10.259 11.494 9.93374 12.1446C9.71687 12.6867 9.60843 13.3374 9.5 14.3133C9.5 15.2892 9.5 15.6145 9.5 18C9.5 20.494 9.5 20.7108 9.5 21.6867C9.5 22.6627 9.71687 23.3133 9.93374 23.8554C10.1506 24.3976 10.4759 24.9398 11.0181 25.4819C11.5602 26.0241 11.994 26.241 12.6446 26.5663C13.1867 26.7831 13.8374 26.8916 14.8133 27C15.7892 27 16.1145 27 18.5 27C20.8855 27 21.2108 27 22.1867 27C23.1627 27 23.8133 26.7831 24.3554 26.5663C24.8976 26.3494 25.4398 26.0241 25.9819 25.4819C26.5241 24.9398 26.741 24.506 27.0663 23.8554C27.2831 23.3133 27.3916 22.6627 27.5 21.6867C27.5 20.7108 27.5 20.3855 27.5 18C27.5 15.6145 27.5 15.2892 27.5 14.3133C27.5 13.3374 27.2831 12.6867 27.0663 12.1446C26.8494 11.6024 26.5241 11.0602 25.9819 10.5181C25.4398 9.9759 25.006 9.75904 24.3554 9.43374C23.8133 9.21687 23.1627 9.10843 22.1867 9C21.2108 9 20.994 9 18.5 9Z" fill="white"/>
<path d="M18.5 13.3373C15.8976 13.3373 13.8373 15.3976 13.8373 18C13.8373 20.6024 15.8976 22.6627 18.5 22.6627C21.1024 22.6627 23.1627 20.6024 23.1627 18C23.1627 15.3976 21.1024 13.3373 18.5 13.3373ZM18.5 21.0361C16.8735 21.0361 15.4639 19.7349 15.4639 18C15.4639 16.3735 16.7651 14.9639 18.5 14.9639C20.1265 14.9639 21.5361 16.2651 21.5361 18C21.5361 19.6265 20.1265 21.0361 18.5 21.0361Z" fill="white"/>
<path d="M23.2711 14.3133C23.8699 14.3133 24.3554 13.8278 24.3554 13.2289C24.3554 12.6301 23.8699 12.1446 23.2711 12.1446C22.6722 12.1446 22.1867 12.6301 22.1867 13.2289C22.1867 13.8278 22.6722 14.3133 23.2711 14.3133Z" fill="white"/>
<defs>
<radialGradient id="paint0_radial_680_2067" cx="0" cy="0" r="1" gradientUnits="userSpaceOnUse" gradientTransform="translate(37.2242 0.731251) scale(83.1347)">
<stop stop-color="#F9ED32"/>
<stop offset="0.36" stop-color="#EE2A7B"/>
<stop offset="0.44" stop-color="#D22A8A"/>
<stop offset="0.6" stop-color="#8B2AB2"/>
<stop offset="0.83" stop-color="#1B2AF0"/>
<stop offset="0.88" stop-color="#002AFF"/>
</radialGradient>
</defs>
</svg>
