<svg width="37" height="36" viewBox="0 0 37 36" fill="none" xmlns="http://www.w3.org/2000/svg">
<rect x="0.5" width="36" height="36" rx="18" fill="#0077FF"/>
<path d="M19.3842 24.3C12.6193 24.3 8.76075 19.5703 8.59998 11.7H11.9886C12.0999 17.4766 14.5981 19.9234 16.5769 20.4279V11.7H19.7676V16.682C21.7217 16.4676 23.7746 14.1973 24.4672 11.7H27.6579C27.397 12.9952 26.8767 14.2215 26.1298 15.3022C25.3829 16.383 24.4253 17.295 23.317 17.9811C24.5542 18.608 25.6469 19.4953 26.523 20.5846C27.3992 21.6738 28.0389 22.9401 28.4 24.3H24.8877C24.5636 23.1188 23.9048 22.0615 22.994 21.2605C22.0832 20.4596 20.9609 19.9505 19.7676 19.7973V24.3H19.3842Z" fill="white"/>
</svg>
